<svg width="146" height="146" viewBox="0 0 146 146" fill="none" xmlns="http://www.w3.org/2000/svg">
<g clip-path="url(#clip0_96_600)">
<path d="M109.5 87.054C104.464 89.7441 96.7679 91.2503 88.2083 91.2503C79.6486 91.2503 71.9524 89.7441 66.9166 87.054V97.3337C66.9166 99.8779 76.3525 103.417 88.2083 103.417C100.064 103.417 109.5 99.8779 109.5 97.3337V87.054ZM60.8333 79.0837C60.8333 71.5523 73.1921 66.917 88.2083 66.917C103.224 66.917 115.583 71.5523 115.583 79.0837V115.584C115.583 123.115 103.224 127.75 88.2083 127.75C73.1921 127.75 60.8333 123.115 60.8333 115.584V79.0837ZM109.5 105.304C104.464 107.994 96.7679 109.5 88.2083 109.5C79.6486 109.5 71.9524 107.994 66.9166 105.304V115.584C66.9166 118.128 76.3525 121.667 88.2083 121.667C100.064 121.667 109.5 118.128 109.5 115.584V105.304ZM72.9999 32.3068C67.9651 34.9959 60.2702 36.5003 51.7083 36.5003C43.1463 36.5003 35.4514 34.9959 30.4166 32.3068V42.5837C30.4166 45.1279 39.8525 48.667 51.7083 48.667C63.564 48.667 72.9999 45.1279 72.9999 42.5837V32.3068ZM79.0833 24.3337V57.792C79.0833 59.4719 77.7215 60.8337 76.0416 60.8337C74.3617 60.8337 72.9999 59.4719 72.9999 57.792V50.554C67.9641 53.2441 60.2679 54.7503 51.7083 54.7503C43.1486 54.7503 35.4524 53.2441 30.4166 50.554V60.8337C30.4166 63.3779 39.8525 66.917 51.7083 66.917C53.3881 66.917 54.7499 68.2788 54.7499 69.9587C54.7499 71.6385 53.3881 73.0003 51.7083 73.0003C43.1486 73.0003 35.4524 71.4941 30.4166 68.804V79.0837C30.4166 81.6279 39.8525 85.167 51.7083 85.167C53.3881 85.167 54.7499 86.5288 54.7499 88.2087C54.7499 89.8885 53.3881 91.2503 51.7083 91.2503C43.1486 91.2503 35.4524 89.7441 30.4166 87.054V97.3337C30.4166 99.8779 39.8525 103.417 51.7083 103.417C53.3881 103.417 54.7499 104.779 54.7499 106.459C54.7499 108.139 53.3881 109.5 51.7083 109.5C43.1486 109.5 35.4524 107.994 30.4166 105.304V115.584C30.4166 118.128 39.8525 121.667 51.7083 121.667C53.3881 121.667 54.7499 123.029 54.7499 124.709C54.7499 126.389 53.3881 127.75 51.7083 127.75C36.6921 127.75 24.3333 123.115 24.3333 115.584V24.3337C24.3333 16.798 36.6862 12.167 51.7083 12.167C66.7304 12.167 79.0833 16.798 79.0833 24.3337ZM72.9999 24.3337C72.9999 21.7858 63.5693 18.2503 51.7083 18.2503C39.8472 18.2503 30.4166 21.7858 30.4166 24.3337C30.4166 26.8815 39.8472 30.417 51.7083 30.417C63.5693 30.417 72.9999 26.8815 72.9999 24.3337ZM109.5 79.0837C109.5 76.5394 100.064 73.0003 88.2083 73.0003C76.3525 73.0003 66.9166 76.5394 66.9166 79.0837C66.9166 81.6279 76.3525 85.167 88.2083 85.167C100.064 85.167 109.5 81.6279 109.5 79.0837Z" fill="#0DA487"/>
</g>
<defs>
<clipPath id="clip0_96_600">
<rect width="146" height="146" fill="white"/>
</clipPath>
</defs>
</svg>
