<svg id="eN6LIAQtXqH1" xmlns="http://www.w3.org/2000/svg" xmlns:xlink="http://www.w3.org/1999/xlink" viewBox="0 0 129.88 129.88" shape-rendering="geometricPrecision" text-rendering="geometricPrecision"><defs><linearGradient id="eN6LIAQtXqH3-fill" x1="21.08" y1="90.47" x2="108.88" y2="39.78" spreadMethod="pad" gradientUnits="userSpaceOnUse" gradientTransform="translate(0 0)"><stop id="eN6LIAQtXqH3-fill-0" offset="2%" stop-color="#f00"/><stop id="eN6LIAQtXqH3-fill-1" offset="100%" stop-color="#9e005d"/></linearGradient><linearGradient id="eN6LIAQtXqH7-fill" x1="46.14" y1="57.75" x2="88.56" y2="57.75" spreadMethod="pad" gradientUnits="userSpaceOnUse" gradientTransform="translate(0 0)"><stop id="eN6LIAQtXqH7-fill-0" offset="2%" stop-color="#f00"/><stop id="eN6LIAQtXqH7-fill-1" offset="100%" stop-color="#9e005d"/></linearGradient></defs><g transform="matrix(.999995 0 0 1.025306 0.000325-1.64818)"><path d="M86.37,14.44h-42.78c-4.875199-.000586-9.380615,2.598985-11.82,6.82L10.38,58.31c-2.43038,4.221882-2.43038,9.418118,0,13.64L31.77,109c2.439385,4.221015,6.944801,6.820586,11.82,6.82h42.78c4.872732.00114,9.375422-2.599059,11.81-6.82l21.4-37c2.43038-4.221882,2.43038-9.418118,0-13.64l-21.4-37c-2.409014-4.259459-6.916539-6.900617-11.81-6.92Z" fill="url(#eN6LIAQtXqH3-fill)"/><path d="M62.32,91.8c0,2.054668-1.237702,3.907021-3.135968,4.693308s-4.083265.351664-5.536134-1.101206-1.887494-3.637868-1.101206-5.536134s2.63864-3.135968,4.693308-3.135968c2.805607,0,5.08,2.274393,5.08,5.08Z" fill="none" stroke="#fff" stroke-width="4.6" stroke-linejoin="round"/><path d="M82.53,91.8c0,2.054668-1.237702,3.907021-3.135968,4.693308s-4.083265.351664-5.536134-1.101206-1.887494-3.637868-1.101206-5.536134s2.63864-3.135968,4.693308-3.135968c2.805607,0,5.08,2.274393,5.08,5.08Z" fill="none" stroke="#fff" stroke-width="4.6" stroke-linejoin="round"/><polyline points="34.12,40.87 44.55,40.87 52.15,75.69 48.62,80.81 87.92,80.81" fill="none" stroke="#fff" stroke-width="4.6" stroke-linecap="round" stroke-linejoin="round"/><polygon points="88.56,68.62 51.62,71.62 46.14,43.87 88.56,43.87 88.56,68.62" fill="url(#eN6LIAQtXqH7-fill)" stroke="#fff" stroke-width="4" stroke-miterlimit="10"/><line x1="55.59" y1="51.36" x2="80.24" y2="51.36" fill="none" stroke="#fff" stroke-width="4.6" stroke-linecap="round" stroke-linejoin="round"/></g></svg>
